<svg width="50" height="50" viewBox="0 0 50 50" fill="none" xmlns="http://www.w3.org/2000/svg">
<g clip-path="url(#clip0_176_584)">
<path d="M24.6589 47.3916L23.4732 48.5773C22.9466 49.1039 23.327 49.9999 24.0625 49.9999C24.2757 49.9999 24.4891 49.9185 24.6518 49.7558L27.2559 47.1517C27.5814 46.8263 27.5814 46.2986 27.2559 45.9732L24.6518 43.3691C24.3263 43.0436 23.7987 43.0436 23.4733 43.3691C23.1478 43.6945 23.1478 44.2221 23.4733 44.5475L24.6505 45.7247C13.381 45.5371 4.27082 36.3131 4.27082 24.9999C4.27082 20.325 5.78957 15.9124 8.6628 12.2393C8.94634 11.8768 8.88239 11.353 8.51978 11.0695C8.15738 10.786 7.63363 10.8499 7.34999 11.2125C4.2453 15.1816 2.60415 19.9492 2.60415 24.9999C2.60415 37.2648 12.437 47.2102 24.6589 47.3916ZM10.0754 10.2705C9.32915 10.2705 8.95551 9.35406 9.49989 8.83438C9.87749 8.47292 10.3962 8.52865 10.6959 8.84021C11.224 9.38927 10.7907 10.2705 10.0754 10.2705ZM29.5833 29.8957H32.0833C32.5435 29.8957 32.9167 30.2689 32.9167 30.7291C32.9167 31.1893 32.5435 31.5624 32.0833 31.5624H29.5833C29.1231 31.5624 28.75 31.1893 28.75 30.7291C28.75 30.2689 29.1231 29.8957 29.5833 29.8957ZM15.7292 35.9374C15.7292 35.4772 16.1023 35.1041 16.5625 35.1041H33.4375C34.3565 35.1041 35.1042 34.3564 35.1042 33.4374V16.5624C35.1042 15.6434 34.3565 14.8957 33.4375 14.8957H29.1667V20.7291C29.1667 21.357 28.4967 21.7594 27.9424 21.465L25 19.9018L22.0576 21.4649C21.503 21.7596 20.8333 21.3565 20.8333 20.7291V17.8124C20.8333 17.3522 21.2064 16.9791 21.6667 16.9791C22.1269 16.9791 22.5 17.3522 22.5 17.8124V19.3427L24.6091 18.2223C24.8536 18.0924 25.1464 18.0924 25.391 18.2223L27.5 19.3427V14.8957H16.5625C15.6435 14.8957 14.8958 15.6434 14.8958 16.5624V31.3541C14.8958 31.8143 14.5227 32.1874 14.0625 32.1874C13.6023 32.1874 13.2292 31.8143 13.2292 31.3541V16.5624C13.2292 14.7244 14.7245 13.2291 16.5625 13.2291H33.4375C35.2755 13.2291 36.7708 14.7244 36.7708 16.5624V33.4374C36.7708 35.2754 35.2755 36.7707 33.4375 36.7707H16.5625C16.1023 36.7707 15.7292 36.3976 15.7292 35.9374ZM45.7292 24.9999C45.7292 13.6867 36.619 4.4626 25.3496 4.27521L26.5268 5.4524C27.0534 5.97885 26.6731 6.8749 25.9375 6.8749C25.7243 6.8749 25.5109 6.79354 25.3482 6.63083L22.7441 4.02667C22.4185 3.70125 22.4185 3.17365 22.7441 2.84823L25.3482 0.244062C25.6736 -0.0813542 26.2012 -0.0813542 26.5267 0.244062C26.8522 0.569479 26.8522 1.09708 26.5267 1.4225L25.3409 2.60823C37.5549 2.78938 47.3958 12.727 47.3958 24.9999C47.3958 30.0505 45.7548 34.8182 42.65 38.7874C42.3662 39.1502 41.8424 39.2138 41.4802 38.9304C41.1177 38.6469 41.0536 38.1231 41.3372 37.7606C44.2105 34.0874 45.7292 29.6748 45.7292 24.9999ZM40.5275 39.9872C40.8267 40.3006 40.8588 40.8221 40.4823 41.1824C40.1507 41.5014 39.6232 41.4914 39.304 41.1595C38.9849 40.8277 38.9952 40.3002 39.3269 39.9811C39.7103 39.6144 40.23 39.6754 40.5275 39.9872Z" fill="#437FC8"/>
</g>
<defs>
<clipPath id="clip0_176_584">
<rect width="50" height="50" fill="white" transform="matrix(-1 0 0 1 50 0)"/>
</clipPath>
</defs>
</svg>
