<svg width="45" height="45" viewBox="0 0 45 45" fill="none" xmlns="http://www.w3.org/2000/svg">
<path d="M39.7305 14.41C39.7832 13.9357 39.7285 13.4556 39.5706 13.0052C39.4127 12.5548 39.1555 12.1457 38.8181 11.8081C38.4808 11.4705 38.0718 11.2131 37.6215 11.0549C37.1712 10.8967 36.6911 10.8418 36.2167 10.8942C36.2293 10.7788 36.2357 10.6628 36.2359 10.5468C36.2359 9.701 35.8999 8.88985 35.3019 8.29179C34.7038 7.69373 33.8927 7.35774 33.0469 7.35774C32.9308 7.35792 32.8148 7.36432 32.6995 7.37693C32.7716 6.7206 32.6381 6.05806 32.3175 5.48086C31.9968 4.90366 31.5048 4.4403 30.9095 4.15478C30.3141 3.86927 29.6448 3.7757 28.9939 3.88702C28.3431 3.99833 27.7429 4.30902 27.2763 4.77617L24.8713 7.18115C24.5131 6.70416 24.1218 6.25295 23.7003 5.83086L20.8878 3.01836C19.8235 1.9541 18.3801 1.3562 16.875 1.3562C15.3699 1.3562 13.9265 1.9541 12.8622 3.01836C12.7969 3.08364 12.7451 3.16115 12.7098 3.24646C12.6744 3.33176 12.6562 3.42319 12.6562 3.51553C12.6562 3.60787 12.6744 3.6993 12.7098 3.7846C12.7451 3.86991 12.7969 3.94742 12.8622 4.0127L13.8813 5.03182C15.1909 6.34469 16.131 7.97969 16.607 9.7719C17.0829 11.5641 17.0778 13.4501 16.5921 15.2397C16.3132 16.2625 16.1719 17.3179 16.1719 18.3781V22.9118L14.7656 24.3181L14.5597 24.1121C14.4278 23.9802 14.249 23.9062 14.0625 23.9062C13.876 23.9062 13.6972 23.9802 13.5653 24.1121L11.25 26.4274L11.044 26.2215C10.9122 26.0896 10.7333 26.0155 10.5469 26.0155C10.3604 26.0155 10.1816 26.0896 10.0497 26.2215L1.6122 34.659L2.60655 35.6533L10.5469 27.713L22.2088 39.3749L19.1903 42.3934L20.1847 43.3877L23.7003 39.8721C23.7656 39.8068 23.8174 39.7293 23.8527 39.644C23.8881 39.5587 23.9063 39.4672 23.9063 39.3749C23.9063 39.2826 23.8881 39.1911 23.8527 39.1058C23.8174 39.0205 23.7656 38.943 23.7003 38.8777L22.7912 37.9687L25.1065 35.6533C25.1718 35.588 25.2236 35.5105 25.259 35.4252C25.2943 35.3399 25.3125 35.2485 25.3125 35.1562C25.3125 35.0638 25.2943 34.9724 25.259 34.8871C25.2236 34.8018 25.1718 34.7243 25.1065 34.659L23.4943 33.0468L24.9006 31.6405H30.2344C30.3267 31.6405 30.4181 31.6223 30.5034 31.587C30.5887 31.5517 30.6663 31.4999 30.7315 31.4346L37.7628 24.4033L37.7352 24.3758C37.8698 24.2778 37.9966 24.1695 38.1144 24.0518L42.3331 19.833C42.8004 19.3663 43.1111 18.7659 43.2223 18.1149C43.3336 17.4639 43.2398 16.7944 42.9541 16.199C42.6683 15.6035 42.2047 15.1116 41.6272 14.7911C41.0497 14.4707 40.3869 14.3375 39.7305 14.41ZM36.5625 12.2804C36.9151 12.2802 37.2599 12.3846 37.5531 12.5804C37.8464 12.7762 38.075 13.0546 38.2099 13.3803C38.3449 13.7061 38.3802 14.0646 38.3113 14.4104C38.2425 14.7562 38.0726 15.0738 37.8231 15.323L33.6044 19.5418C33.27 19.8761 32.8166 20.064 32.3437 20.064C31.8709 20.064 31.4174 19.8761 31.0831 19.5418C30.7488 19.2075 30.5609 18.754 30.5609 18.2812C30.5609 17.8083 30.7488 17.3549 31.0831 17.0205L35.3019 12.8018C35.4673 12.6361 35.6638 12.5048 35.8802 12.4153C36.0965 12.3259 36.3284 12.28 36.5625 12.2804ZM34.3075 9.28614C34.6413 9.62075 34.8288 10.0741 34.8288 10.5468C34.8288 11.0194 34.6413 11.4728 34.3075 11.8074L30.0888 16.0262C29.7544 16.3605 29.301 16.5483 28.8281 16.5483C28.3553 16.5483 27.9018 16.3605 27.5675 16.0262C27.2331 15.6918 27.0453 15.2384 27.0453 14.7655C27.0453 14.2927 27.2331 13.8392 27.5675 13.5049L31.7862 9.28614C32.1208 8.95232 32.5742 8.76485 33.0469 8.76485C33.5195 8.76485 33.9729 8.95232 34.3075 9.28614ZM28.2706 5.77052C28.6049 5.43617 29.0584 5.24834 29.5312 5.24834C30.0041 5.24834 30.4575 5.43617 30.7919 5.77052C31.1262 6.10486 31.3141 6.55832 31.3141 7.03115C31.3141 7.50399 31.1262 7.95745 30.7919 8.29179L26.5731 12.5105C26.4076 12.6761 26.211 12.8074 25.9947 12.897C25.7784 12.9866 25.5466 13.0327 25.3125 13.0327C25.0784 13.0327 24.8465 12.9866 24.6302 12.897C24.4139 12.8074 24.2174 12.6761 24.0519 12.5105C23.8863 12.345 23.755 12.1485 23.6654 11.9322C23.5758 11.7159 23.5297 11.484 23.5297 11.2499C23.5297 11.0158 23.5758 10.784 23.6654 10.5677C23.755 10.3514 23.8863 10.1548 24.0519 9.98927L28.2706 5.77052ZM21.7969 36.9743L12.2443 27.4218L14.0625 25.6036L23.615 35.1562L21.7969 36.9743ZM29.9431 30.2343H24.6094C24.517 30.2343 24.4256 30.2525 24.3403 30.2878C24.255 30.3231 24.1775 30.3749 24.1122 30.4402L22.5 32.0524L15.76 25.3124L17.3722 23.7002C17.4375 23.6349 17.4893 23.5574 17.5246 23.4721C17.5599 23.3868 17.5781 23.2954 17.5781 23.203V18.3781C17.5781 17.4429 17.7028 16.5119 17.9489 15.6097C18.4994 13.5809 18.5052 11.4428 17.9656 9.41107C17.4261 7.37932 16.3602 5.5258 14.8757 4.03747L14.3947 3.55647C15.2175 2.97087 16.221 2.69541 17.2275 2.77892C18.234 2.86243 19.1784 3.2995 19.8935 4.0127L22.706 6.8252C23.128 7.24755 23.516 7.70261 23.8663 8.18614L23.0575 8.99492C22.5898 9.46136 22.2787 10.0616 22.1671 10.7126C22.0555 11.3637 22.1489 12.0333 22.4346 12.6289C22.7202 13.2244 23.1838 13.7165 23.7614 14.0371C24.3389 14.3576 25.0018 14.4908 25.6583 14.4181C25.6457 14.5335 25.6393 14.6495 25.6391 14.7655C25.6379 15.291 25.7673 15.8086 26.0156 16.2718V16.825C26.0197 18.3095 25.7292 19.7801 25.1611 21.1516C24.593 22.5231 23.7585 23.7684 22.7059 24.8152L23.7003 25.8096C25.897 23.6251 27.2128 20.7086 27.3968 17.6161C27.8409 17.8394 28.3311 17.9553 28.8281 17.9546C28.9442 17.9544 29.0602 17.948 29.1755 17.9354C29.123 18.4098 29.1778 18.89 29.3359 19.3403C29.494 19.7907 29.7514 20.1997 30.0891 20.5372C30.4267 20.8746 30.8359 21.1317 31.2863 21.2896C31.7368 21.4475 32.217 21.502 32.6914 21.4491C32.603 22.2443 32.8173 23.0437 33.2917 23.688C33.766 24.3323 34.4656 24.7744 35.2512 24.9262L29.9431 30.2343ZM41.3388 18.8387L37.12 23.0574C36.7857 23.3918 36.3322 23.5796 35.8594 23.5796C35.3865 23.5796 34.9331 23.3918 34.5987 23.0574C34.2644 22.7231 34.0766 22.2696 34.0766 21.7968C34.0766 21.3239 34.2644 20.8705 34.5987 20.5361L38.8175 16.3174C39.1518 15.983 39.6053 15.7952 40.0781 15.7952C40.5509 15.7952 41.0044 15.983 41.3388 16.3174C41.6731 16.6517 41.8609 17.1052 41.8609 17.578C41.8609 18.0509 41.6731 18.5043 41.3388 18.8387Z" fill="#437FC8"/>
<path d="M41.4844 35.1562C40.5523 35.1552 39.6587 34.7845 38.9996 34.1254C38.3405 33.4663 37.9698 32.5727 37.9688 31.6406C37.9688 31.4541 37.8947 31.2753 37.7628 31.1434C37.6309 31.0116 37.4521 30.9375 37.2656 30.9375C37.0791 30.9375 36.9003 31.0116 36.7684 31.1434C36.6366 31.2753 36.5625 31.4541 36.5625 31.6406C36.5614 32.5727 36.1907 33.4663 35.5316 34.1254C34.8726 34.7845 33.979 35.1552 33.0469 35.1562C32.8604 35.1562 32.6816 35.2303 32.5497 35.3622C32.4178 35.4941 32.3438 35.6729 32.3438 35.8594C32.3438 36.0459 32.4178 36.2247 32.5497 36.3566C32.6816 36.4884 32.8604 36.5625 33.0469 36.5625C33.979 36.5636 34.8726 36.9343 35.5316 37.5934C36.1907 38.2524 36.5614 39.146 36.5625 40.0781C36.5625 40.2646 36.6366 40.4434 36.7684 40.5753C36.9003 40.7072 37.0791 40.7812 37.2656 40.7812C37.4521 40.7812 37.6309 40.7072 37.7628 40.5753C37.8947 40.4434 37.9688 40.2646 37.9688 40.0781C37.9698 39.146 38.3405 38.2524 38.9996 37.5934C39.6587 36.9343 40.5523 36.5636 41.4844 36.5625C41.6709 36.5625 41.8497 36.4884 41.9816 36.3566C42.1134 36.2247 42.1875 36.0459 42.1875 35.8594C42.1875 35.6729 42.1134 35.4941 41.9816 35.3622C41.8497 35.2303 41.6709 35.1562 41.4844 35.1562ZM37.2656 37.5451C36.8491 36.8546 36.2704 36.2759 35.5799 35.8594C36.2704 35.4428 36.8491 34.8642 37.2656 34.1736C37.6822 34.8642 38.2608 35.4428 38.9514 35.8594C38.2608 36.2759 37.6822 36.8546 37.2656 37.5451Z" fill="#437FC8"/>
<path d="M42.8906 4.92188C42.145 4.92104 41.4301 4.62445 40.9028 4.09719C40.3755 3.56992 40.079 2.85504 40.0781 2.10938C40.0781 1.92289 40.004 1.74405 39.8722 1.61219C39.7403 1.48033 39.5615 1.40625 39.375 1.40625C39.1885 1.40625 39.0097 1.48033 38.8778 1.61219C38.746 1.74405 38.6719 1.92289 38.6719 2.10938C38.671 2.85504 38.3745 3.56992 37.8472 4.09719C37.3199 4.62445 36.605 4.92104 35.8594 4.92188C35.6729 4.92188 35.4941 4.99595 35.3622 5.12782C35.2303 5.25968 35.1562 5.43852 35.1562 5.625C35.1562 5.81148 35.2303 5.99032 35.3622 6.12218C35.4941 6.25405 35.6729 6.32812 35.8594 6.32812C36.605 6.32896 37.3199 6.62555 37.8472 7.15281C38.3745 7.68008 38.671 8.39496 38.6719 9.14062C38.6719 9.32711 38.746 9.50595 38.8778 9.63781C39.0097 9.76967 39.1885 9.84375 39.375 9.84375C39.5615 9.84375 39.7403 9.76967 39.8722 9.63781C40.004 9.50595 40.0781 9.32711 40.0781 9.14062C40.079 8.39496 40.3755 7.68008 40.9028 7.15281C41.4301 6.62555 42.145 6.32896 42.8906 6.32812C43.0771 6.32812 43.2559 6.25405 43.3878 6.12218C43.5197 5.99032 43.5938 5.81148 43.5938 5.625C43.5938 5.43852 43.5197 5.25968 43.3878 5.12782C43.2559 4.99595 43.0771 4.92188 42.8906 4.92188ZM39.375 6.81088C39.0623 6.3408 38.6592 5.93767 38.1891 5.625C38.6592 5.31233 39.0623 4.9092 39.375 4.43912C39.6877 4.9092 40.0908 5.31233 40.5609 5.625C40.0908 5.93767 39.6877 6.3408 39.375 6.81088Z" fill="#437FC8"/>
<path d="M5.625 18.9844C5.625 19.1709 5.69908 19.3497 5.83094 19.4816C5.9628 19.6134 6.14164 19.6875 6.32812 19.6875C6.51461 19.6875 6.69345 19.6134 6.82531 19.4816C6.95717 19.3497 7.03125 19.1709 7.03125 18.9844C7.0323 18.0523 7.40303 17.1587 8.06211 16.4996C8.72119 15.8405 9.6148 15.4698 10.5469 15.4688C10.7334 15.4688 10.9122 15.3947 11.0441 15.2628C11.1759 15.1309 11.25 14.9521 11.25 14.7656C11.25 14.5791 11.1759 14.4003 11.0441 14.2684C10.9122 14.1366 10.7334 14.0625 10.5469 14.0625C9.6148 14.0614 8.72119 13.6907 8.06211 13.0316C7.40303 12.3726 7.0323 11.479 7.03125 10.5469C7.03125 10.3604 6.95717 10.1816 6.82531 10.0497C6.69345 9.91783 6.51461 9.84375 6.32812 9.84375C6.14164 9.84375 5.9628 9.91783 5.83094 10.0497C5.69908 10.1816 5.625 10.3604 5.625 10.5469C5.62395 11.479 5.25322 12.3726 4.59414 13.0316C3.93506 13.6907 3.04145 14.0614 2.10938 14.0625C1.92289 14.0625 1.74405 14.1366 1.61219 14.2684C1.48033 14.4003 1.40625 14.5791 1.40625 14.7656C1.40625 14.9521 1.48033 15.1309 1.61219 15.2628C1.74405 15.3947 1.92289 15.4688 2.10938 15.4688C3.04145 15.4698 3.93506 15.8405 4.59414 16.4996C5.25322 17.1587 5.62395 18.0523 5.625 18.9844ZM6.32812 13.0799C6.74469 13.7704 7.32331 14.3491 8.01388 14.7656C7.32331 15.1822 6.74469 15.7608 6.32812 16.4514C5.91156 15.7608 5.33294 15.1822 4.64237 14.7656C5.33294 14.3491 5.91156 13.7704 6.32812 13.0799Z" fill="#437FC8"/>
</svg>
