<svg width="49" height="49" viewBox="0 0 49 49" fill="none" xmlns="http://www.w3.org/2000/svg">
<g clip-path="url(#clip0_176_574)">
<path d="M24.5 0C10.9692 0 0 10.9692 0 24.5C0 38.0308 10.9692 49 24.5 49C38.0308 49 49 38.0308 49 24.5C48.9848 10.9756 38.0244 0.015153 24.5 0ZM24.5 47.3667C11.8712 47.3667 1.63333 37.1288 1.63333 24.5C1.63333 11.8712 11.8712 1.63333 24.5 1.63333C37.1288 1.63333 47.3667 11.8712 47.3667 24.5C47.3523 37.1228 37.1228 47.3523 24.5 47.3667Z" fill="#437FC8"/>
<path d="M13.1416 22.9484C13.1971 22.9596 13.2537 22.9656 13.3099 22.9656C13.6959 22.9648 14.0289 22.694 14.1078 22.3164C14.2103 21.8323 14.3467 21.3566 14.5162 20.892C14.6195 20.6168 14.5668 20.3074 14.3786 20.0817C14.1904 19.856 13.8953 19.7491 13.6062 19.8014C13.3167 19.854 13.0782 20.0578 12.9809 20.3349C12.7867 20.8721 12.63 21.4223 12.5128 21.9814C12.4203 22.422 12.7014 22.8543 13.1416 22.9484Z" fill="#437FC8"/>
<path d="M15.2324 18.6199C15.4947 18.6203 15.7408 18.4951 15.8947 18.2829C16.1854 17.8822 16.5028 17.5022 16.8454 17.1453C17.1576 16.8199 17.1472 16.3027 16.8218 15.9905C16.4964 15.6782 15.9792 15.6886 15.667 16.014C15.2722 16.4235 14.9066 16.8602 14.5728 17.3207C14.3926 17.5692 14.3666 17.8973 14.5058 18.1705C14.645 18.444 14.9257 18.6163 15.2324 18.6167V18.6199Z" fill="#437FC8"/>
<path d="M18.757 15.4295C18.9006 15.4291 19.0417 15.3908 19.1653 15.3182C19.5908 15.069 20.0339 14.8505 20.4908 14.665C20.9091 14.4952 21.1101 14.0182 20.9402 13.5999C20.77 13.182 20.2934 12.9811 19.8751 13.1509C19.3476 13.3663 18.8352 13.6183 18.3423 13.9046C18.0233 14.09 17.8678 14.4661 17.9635 14.8225C18.0588 15.179 18.3818 15.4271 18.7506 15.4279L18.757 15.4295Z" fill="#437FC8"/>
<path d="M36.2707 21.1405C36.2659 21.1189 36.2707 21.0986 36.2647 21.0775C36.2503 21.0252 36.2296 20.9738 36.2144 20.9215C36.1989 20.8693 36.175 20.8047 36.1562 20.7457C36.0573 20.4402 35.9465 20.1384 35.8241 19.8393C35.8017 19.7855 35.7806 19.7308 35.7579 19.6758C35.7284 19.608 35.7048 19.5386 35.6761 19.4716C35.6618 19.4493 35.6462 19.4278 35.6295 19.4074C35.1733 18.4073 34.5847 17.4734 33.8793 16.6305C33.8697 16.6177 33.8673 16.6013 33.8566 16.5882C33.4885 16.1543 33.0909 15.7464 32.6667 15.3672C32.6403 15.35 32.6132 15.3341 32.5849 15.3197C31.7746 14.6055 30.8734 14.0014 29.9048 13.5233C29.8829 13.5038 29.8598 13.4862 29.8354 13.4703C29.6783 13.3941 29.5168 13.3279 29.3557 13.2585C29.3095 13.2382 29.2636 13.2163 29.2162 13.1967C28.8967 13.0635 28.5753 12.9395 28.2476 12.8346C28.2388 12.8346 28.2304 12.8346 28.2216 12.8346C27.1657 12.5021 26.0695 12.3142 24.963 12.2772C24.9378 12.2772 24.9163 12.2608 24.8912 12.26C24.8094 12.26 24.7221 12.26 24.6388 12.26C24.5921 12.26 24.5474 12.2524 24.5008 12.2524C24.4876 12.2524 24.4773 12.2592 24.4641 12.26C24.037 12.2588 23.6099 12.2796 23.1853 12.3226C22.7554 12.3697 22.4368 12.7437 22.4587 13.1756C22.4803 13.607 22.8344 13.9472 23.267 13.9512C23.2961 13.9512 23.3252 13.9496 23.3543 13.9464C23.7714 13.9041 24.1909 13.8858 24.61 13.8914C25.979 13.9025 27.332 14.1801 28.5949 14.708L28.6838 14.7475C29.8227 15.2408 30.8666 15.929 31.7682 16.7816C31.9888 16.9893 32.1977 17.2063 32.3987 17.4352C33.1719 18.2917 33.8003 19.2683 34.2593 20.327C34.2773 20.3677 34.2928 20.4087 34.31 20.4502C34.4188 20.711 34.5161 20.977 34.6022 21.2481C34.6186 21.2988 34.6365 21.3494 34.6521 21.4001C34.9599 22.4045 35.1167 23.4493 35.1167 24.5C35.1167 24.8266 35.0963 25.1484 35.0676 25.467C35.0604 25.5488 35.0513 25.6301 35.0425 25.7119C34.7303 28.4295 33.3796 30.9213 31.2734 32.6667L31.2303 32.7034C30.1824 33.5655 28.9789 34.2183 27.6849 34.6266C27.6482 34.6382 27.6099 34.6478 27.5733 34.6585C27.3045 34.7403 27.0309 34.8097 26.7566 34.8703L26.554 34.9133C20.8856 36.0371 15.3627 32.4107 14.1405 26.763L15.9685 27.685C16.372 27.8867 16.8625 27.7228 17.0643 27.3193C17.266 26.9154 17.1021 26.4249 16.6982 26.2231L13.4315 24.5898C13.3207 24.5355 13.1986 24.5076 13.0746 24.508C13.0631 24.5044 13.0511 24.5016 13.0387 24.5C13.0152 24.5052 12.9917 24.512 12.9686 24.5196C12.884 24.5284 12.8011 24.5507 12.7237 24.5858C12.5566 24.6592 12.4195 24.7868 12.3349 24.9483L10.7016 28.2149C10.4998 28.6189 10.6637 29.1093 11.0673 29.3111C11.4712 29.5125 11.9617 29.349 12.1635 28.9451L12.7213 27.8297C12.953 28.6504 13.2716 29.4443 13.672 30.198C13.6776 30.2207 13.6843 30.243 13.6923 30.265C13.9607 30.7682 14.2641 31.2515 14.6003 31.7121C14.6206 31.74 14.6525 31.7512 14.6757 31.7759C15.3105 32.6244 16.0514 33.3885 16.8804 34.0484C16.9083 34.0879 16.9398 34.1246 16.9745 34.1581C17.4227 34.5106 17.8953 34.8308 18.3889 35.1167C18.4496 35.1522 18.5146 35.1797 18.5823 35.1985C19.4943 35.7065 20.4677 36.0961 21.4782 36.3573C21.5021 36.3704 21.5268 36.382 21.5519 36.3924C22.1058 36.5291 22.6685 36.6272 23.2359 36.6854H23.3173C23.7084 36.7249 24.104 36.7469 24.504 36.7469C25.1695 36.7425 25.8335 36.6834 26.4894 36.571H26.4994C26.5472 36.5714 26.5951 36.567 26.6421 36.5582C26.7131 36.5459 26.7825 36.5271 26.8535 36.5132C26.9444 36.496 27.0333 36.4757 27.1231 36.4562C27.4325 36.3892 27.7375 36.3102 28.0386 36.2201C28.0861 36.2061 28.1343 36.1946 28.1806 36.1798C28.2272 36.1655 28.2623 36.1579 28.2998 36.1455C28.3185 36.1391 28.3309 36.1252 28.3481 36.118C29.402 35.7711 30.4037 35.2818 31.3256 34.6641C31.3372 34.6569 31.3495 34.6553 31.3607 34.6478C31.6737 34.4364 31.974 34.2035 32.2683 33.9627C32.287 33.9471 32.305 33.9308 32.3245 33.9152C32.4517 33.8092 32.5817 33.7063 32.7041 33.5962C32.7261 33.5703 32.746 33.5432 32.764 33.5145C33.5495 32.7963 34.2386 31.9792 34.8144 31.084C34.8443 31.0525 34.8714 31.019 34.8961 30.9835C35.198 30.5002 35.466 29.9966 35.698 29.4758C35.7064 29.4579 35.704 29.4391 35.7104 29.4212C36.1502 28.4195 36.4525 27.3624 36.6088 26.2797C36.6192 26.253 36.6284 26.2255 36.6355 26.198C36.6495 26.0991 36.6559 25.9986 36.6674 25.8989C36.679 25.7992 36.6886 25.7031 36.6977 25.605C36.7312 25.2358 36.754 24.8649 36.754 24.4945V24.447C36.754 24.4422 36.754 24.437 36.754 24.4315C36.7436 23.3173 36.5813 22.2099 36.2707 21.1405Z" fill="#437FC8"/>
<path d="M24.5 17.1499C24.049 17.1499 23.6833 17.5156 23.6833 17.9666V24.4999C23.6833 24.7164 23.7695 24.9242 23.9226 25.0773L27.1892 28.344C27.5098 28.6534 28.0191 28.649 28.3341 28.334C28.6491 28.019 28.6535 27.5098 28.3441 27.1892L25.3167 24.1618V17.9666C25.3167 17.5156 24.951 17.1499 24.5 17.1499Z" fill="#437FC8"/>
</g>
<defs>
<clipPath id="clip0_176_574">
<rect width="49" height="49" fill="white"/>
</clipPath>
</defs>
</svg>
