<svg width="50" height="50" viewBox="0 0 50 50" fill="none" xmlns="http://www.w3.org/2000/svg">
<g clip-path="url(#clip0_176_611)">
<path d="M43.6489 21.379L42.5877 19.0436C42.5278 18.912 42.5278 18.7609 42.5877 18.6293L43.6489 16.2936C43.998 15.5249 43.8183 14.6212 43.2014 14.0445L41.3273 12.2931C41.2216 12.1943 41.164 12.0547 41.169 11.9101L41.2552 9.34629C41.2838 8.50248 40.7719 7.73611 39.9815 7.43971L37.5797 6.53829C37.4443 6.48756 37.3375 6.38075 37.2868 6.24533L36.3857 3.8436C36.089 3.05319 35.3199 2.5405 34.4788 2.56987L31.9153 2.65647C31.7688 2.66066 31.6311 2.60344 31.5323 2.49778L29.7806 0.623618C29.2042 0.00678285 28.3001 -0.172889 27.5315 0.176537L25.1961 1.2374C25.0645 1.29729 24.9134 1.29691 24.7818 1.2374L22.4461 0.176537C21.6774 -0.172889 20.7737 0.00678285 20.197 0.623618L18.4456 2.49778C18.3468 2.60344 18.208 2.66143 18.0626 2.65647L15.4988 2.56987C14.6546 2.54203 13.889 3.05358 13.5922 3.84398L12.6908 6.24571C12.6401 6.38113 12.5332 6.48794 12.3978 6.53868L9.99609 7.43971C9.20569 7.73649 8.69376 8.50248 8.72237 9.34629L8.80896 11.9101C8.81354 12.0547 8.75594 12.1943 8.65027 12.2931L6.7765 14.0445C6.15966 14.6212 5.97961 15.5249 6.32903 16.2936L7.3899 18.629C7.44979 18.7606 7.44979 18.9116 7.3899 19.0436L6.32903 21.379C5.97961 22.1476 6.15928 23.0513 6.77611 23.6281L8.65027 25.3798C8.75594 25.4786 8.81354 25.6178 8.80896 25.7624L8.72237 28.3263C8.69376 29.1701 9.20569 29.9365 9.99609 30.2329L12.3978 31.1339C12.5332 31.185 12.6401 31.2918 12.6908 31.4269L13.5922 33.8286C13.6216 33.9072 13.6555 33.9831 13.6941 34.0556L7.66913 43.342C7.37693 43.7922 7.37464 44.3525 7.66303 44.805C7.95104 45.2574 8.45954 45.4924 8.99092 45.418L13.8955 44.7325C13.9611 44.7233 14.0263 44.7539 14.061 44.8103L16.8675 49.3574C17.1124 49.7541 17.537 49.9945 18.0031 49.9994C18.0085 49.9994 18.0134 49.9998 18.0188 49.9998C18.4788 49.9998 18.9023 49.7702 19.1529 49.3834L27.0169 37.2622L27.5315 37.496C28.3001 37.8451 29.2038 37.6654 29.7806 37.0486L31.5323 35.1748C31.6311 35.0691 31.7715 35.0111 31.9149 35.0161L34.4788 35.1027C35.323 35.1313 36.0886 34.6194 36.3854 33.8286L37.2864 31.4269C37.3371 31.2914 37.4443 31.1846 37.5794 31.1339L39.9811 30.2329C40.7719 29.9361 41.2838 29.1697 41.2552 28.3263L41.1686 25.7624C41.1636 25.6178 41.2216 25.4782 41.3273 25.3794L43.2011 23.6277C43.8183 23.0513 43.998 22.1476 43.6489 21.379ZM18.0207 48.4373L15.3077 44.0413C14.9678 43.4904 14.3345 43.1925 13.6929 43.2818L9.03174 43.9333L14.8232 35.0069C15.0368 35.0767 15.2649 35.1103 15.4988 35.1027L18.0626 35.0161C18.208 35.0111 18.3468 35.0691 18.4456 35.1748L20.1973 37.0486C20.5777 37.4556 21.1007 37.6723 21.6332 37.6723C21.9075 37.6723 22.1848 37.6147 22.4461 37.496L24.7818 36.4352C24.9134 36.3753 25.0645 36.3753 25.1961 36.4352L25.6684 36.6495L18.0207 48.4373ZM42.2012 22.5577L40.3271 24.3094C39.9124 24.697 39.6858 25.2448 39.7049 25.812L39.7915 28.3755C39.7987 28.5906 39.6683 28.7859 39.4669 28.8615L37.0651 29.7625C36.5337 29.962 36.1145 30.3809 35.9154 30.9123L35.014 33.314C34.9384 33.5154 34.7416 33.6459 34.5284 33.6386L31.9645 33.552C31.3976 33.5333 30.8495 33.7599 30.4623 34.1746L28.7106 36.0484C28.5637 36.2055 28.3333 36.2517 28.1372 36.1624L25.8019 35.1015C25.2854 34.8666 24.6926 34.8666 24.1757 35.1015L21.8403 36.1624C21.6443 36.2513 21.4142 36.2055 21.2674 36.0484L19.5157 34.1746C19.1433 33.7759 18.623 33.5513 18.0798 33.5513C18.0577 33.5513 18.0356 33.5516 18.013 33.5524L15.4496 33.639C15.2344 33.6462 15.0391 33.5158 14.9636 33.3144L14.0626 30.9126C13.863 30.3812 13.4438 29.962 12.9128 29.7629L10.5111 28.8615C10.3097 28.7859 10.1792 28.5906 10.1864 28.3759L10.2727 25.812C10.2921 25.2448 10.0651 24.697 9.65048 24.3098L7.77671 22.5577C7.61954 22.4108 7.57338 22.1808 7.66265 21.9847L8.72351 19.6494C8.9585 19.1329 8.9585 18.5401 8.72351 18.0232L7.66265 15.6878C7.57377 15.4921 7.61954 15.2617 7.77671 15.1149L9.65048 13.3632C10.0651 12.9756 10.2921 12.4278 10.273 11.8605L10.1864 9.2967C10.1792 9.08193 10.3097 8.88662 10.5111 8.81109L12.9128 7.91006C13.4442 7.71055 13.863 7.2917 14.0626 6.76031L14.9636 4.35858C15.0391 4.15717 15.2337 4.02708 15.4496 4.03395L18.0134 4.12016C18.5814 4.14038 19.1281 3.91264 19.5157 3.49799L21.2674 1.62421C21.4142 1.46666 21.6446 1.42127 21.8403 1.51015L24.1757 2.57102C24.6926 2.80562 25.285 2.80562 25.8019 2.57102L28.1372 1.51015C28.3333 1.42127 28.5637 1.46705 28.7106 1.62421L30.4623 3.49799C30.8495 3.91264 31.3988 4.14076 31.9645 4.12054L34.5284 4.03395C34.7405 4.02708 34.9384 4.15717 35.014 4.35858L35.9154 6.76031C36.1145 7.2917 36.5337 7.71055 37.0651 7.91006L39.4669 8.81109C39.6683 8.887 39.7987 9.08193 39.7915 9.29708L39.7049 11.8609C39.6858 12.4282 39.9124 12.9756 40.3271 13.3632L42.2012 15.1149C42.3584 15.2617 42.4042 15.4921 42.3153 15.6878L41.254 18.0232C41.0194 18.5401 41.0194 19.1329 41.254 19.6494L42.3149 21.9847C42.4042 22.1808 42.3584 22.4108 42.2012 22.5577Z" fill="#437FC8"/>
<path d="M37.6396 19.5835C37.2379 19.5377 36.8744 19.8249 36.8275 20.2266C36.1305 26.2291 31.0413 30.7552 24.9889 30.7552C18.9331 30.7552 13.8435 26.226 13.1497 20.2201C13.1031 19.8185 12.74 19.5293 12.3379 19.5766C11.9362 19.6231 11.6478 19.9863 11.6943 20.3884C12.4737 27.1335 18.1893 32.22 24.9889 32.22C31.7848 32.22 37.5 27.1366 38.2828 20.3952C38.3293 19.9935 38.0413 19.63 37.6396 19.5835Z" fill="#437FC8"/>
<path d="M24.989 5.45264C18.187 5.45264 12.4711 10.5411 11.6936 17.2889C11.6475 17.6906 11.9359 18.0537 12.3376 18.1003C12.3662 18.1037 12.3944 18.1052 12.4222 18.1052C12.7892 18.1052 13.1058 17.8298 13.1489 17.4563C13.8413 11.4482 18.9313 6.91748 24.989 6.91748C31.0452 6.91748 36.1352 11.4471 36.8283 17.4537C36.8748 17.8554 37.2376 18.1438 37.6401 18.0972C38.0421 18.0511 38.3301 17.6875 38.2836 17.2858C37.505 10.5399 31.7895 5.45264 24.989 5.45264Z" fill="#437FC8"/>
<path d="M37.5901 36.0693C37.37 35.7298 36.916 35.6333 36.5769 35.8534C36.2374 36.0735 36.1409 36.5271 36.361 36.8666L40.9459 43.9333L36.2851 43.2821C35.6438 43.1925 35.0098 43.4904 34.6703 44.0413L31.9569 48.4373L27.2076 41.1173C26.9875 40.7778 26.5339 40.6813 26.1948 40.9014C25.8553 41.1215 25.7588 41.5751 25.9789 41.9146L30.8247 49.3834C31.0757 49.7702 31.4988 49.9998 31.9588 49.9998H31.9745C32.4406 49.9945 32.8652 49.7545 33.1105 49.3578L35.9166 44.8103C35.9517 44.7539 36.0169 44.7233 36.0821 44.7325L40.9867 45.418C41.5177 45.4928 42.0266 45.2574 42.315 44.805C42.603 44.3525 42.6007 43.7922 42.3089 43.3424L37.5901 36.0693Z" fill="#437FC8"/>
</g>
<defs>
<clipPath id="clip0_176_611">
<rect width="50" height="50" fill="white"/>
</clipPath>
</defs>
</svg>
