<svg width="45" height="45" viewBox="0 0 45 45" fill="none" xmlns="http://www.w3.org/2000/svg">
<g clip-path="url(#clip0_176_588)">
<path d="M38.5816 36.186C37.2985 36.186 36.2547 37.2298 36.2547 38.5129C36.2547 39.796 37.2985 40.8398 38.5816 40.8398C39.8646 40.8398 40.9084 39.796 40.9084 38.5129C40.9084 37.2299 39.8646 36.186 38.5816 36.186ZM38.5815 39.4608C38.0589 39.4608 37.6337 39.0355 37.6337 38.5129C37.6337 37.9903 38.0589 37.5651 38.5815 37.5651C39.1041 37.5651 39.5293 37.9903 39.5293 38.5129C39.5293 39.0355 39.1041 39.4608 38.5815 39.4608Z" fill="#437FC8"/>
<path d="M44.8508 38.3924C44.8069 36.6888 44.0858 35.1219 42.8204 33.9804L28.9379 21.4591L41.2125 9.18447C41.2932 9.16039 41.3729 9.13042 41.4498 9.08981L44.1079 7.6869C44.4751 7.49302 44.7214 7.1462 44.7833 6.73566C44.8454 6.32504 44.7126 5.92109 44.4189 5.62719L41.4261 2.63442C41.1324 2.34078 40.7287 2.20798 40.3177 2.27003C39.9072 2.33199 39.5604 2.57826 39.3665 2.94556L37.9635 5.60346C37.9225 5.68106 37.891 5.76131 37.8669 5.84278L32.0731 11.6365C31.8038 11.9059 31.8038 12.3424 32.0731 12.6118C32.3425 12.8809 32.779 12.8809 33.0484 12.6118L38.365 7.295L39.7584 8.68833L26.1617 22.285L24.7684 20.8917L30.7032 14.957C30.9725 14.6876 30.9725 14.2511 30.7032 13.9817C30.4338 13.7126 29.9973 13.7126 29.7279 13.9817L25.4218 18.2878L20.7353 14.0608C22.064 10.2362 21.1018 5.98095 18.2194 3.09866C15.2671 0.146329 10.8381 -0.79454 6.93596 0.701973C6.71791 0.785645 6.55698 0.973907 6.50846 1.20233C6.45995 1.43076 6.53017 1.66824 6.69532 1.83339L12.1087 7.24684C12.2688 7.40697 12.3571 7.61993 12.3571 7.84643C12.3571 8.07292 12.2689 8.28588 12.1087 8.4461L8.59314 11.9616C8.433 12.1219 8.22004 12.2101 7.99355 12.2101C7.76706 12.2101 7.5541 12.122 7.39387 11.9616L1.98043 6.54819C1.81519 6.38305 1.57789 6.31282 1.34937 6.36134C1.12094 6.40994 0.932681 6.57078 0.849009 6.78884C-0.647505 10.6908 0.293365 15.1198 3.24579 18.0723C6.0575 20.8839 10.2303 21.8739 13.9947 20.6575L17.6182 24.6199C17.4441 24.9601 17.2177 25.2774 16.9384 25.5566C15.8939 26.6011 14.3285 26.9302 12.95 26.3951C12.6952 26.296 12.4061 26.357 12.2127 26.5503L3.77005 34.9929C1.48455 37.2785 1.48455 40.9974 3.77005 43.2828C4.87739 44.3903 6.34947 45 7.91524 45C9.48092 45 10.9531 44.3903 12.0602 43.2831L20.5029 34.8405C20.6961 34.6473 20.757 34.3581 20.6581 34.1033C20.1229 32.7248 20.452 31.1592 21.4964 30.1147C22.541 29.0703 24.1065 28.7412 25.485 29.2763C25.74 29.3754 26.0289 29.3142 26.2222 29.1211L27.8148 27.5286C28.2944 27.049 28.5584 26.4114 28.5584 25.7333C28.5584 25.0552 28.2944 24.4176 27.8148 23.9381L27.1369 23.2602L27.9616 22.4355L41.8968 35.0044C42.8787 35.8901 43.4383 37.106 43.4724 38.4279C43.5064 39.7498 43.0101 40.9928 42.0751 41.9278C41.1445 42.8585 39.9046 43.3539 38.5914 43.3255C37.2756 43.2961 36.0619 42.7451 35.1737 41.7738L24.8124 30.4434C24.5551 30.1622 24.1192 30.1429 23.8382 30.3999C23.5572 30.6569 23.5377 31.0931 23.7947 31.374L34.156 42.7045C35.3006 43.9561 36.8649 44.6663 38.5606 44.7041C38.6081 44.7052 38.6554 44.7057 38.7028 44.7057C40.3453 44.7057 41.8844 44.0686 43.0502 42.9029C44.2552 41.6978 44.8946 40.096 44.8508 38.3924ZM39.2123 6.19188L40.5323 3.69104L43.3623 6.52103L40.8615 7.84106L39.2123 6.19188ZM14.7062 19.3921C14.5164 19.1847 14.2198 19.1131 13.9563 19.2114C10.5846 20.4691 6.76291 19.6392 4.22084 17.0974C1.91266 14.7892 1.01829 11.4428 1.8064 8.32464L6.41864 12.9369C6.83937 13.3575 7.39862 13.5891 7.99346 13.5891C8.58831 13.5891 9.14755 13.3575 9.5682 12.9369L13.0837 9.42134C13.5044 9.0006 13.736 8.44136 13.736 7.84651C13.736 7.25167 13.5044 6.69242 13.0837 6.27178L8.47159 1.65937C11.5895 0.870899 14.9362 1.76554 17.2443 4.07381C19.851 6.68038 20.6521 10.578 19.2853 14.0035C19.1783 14.2715 19.2495 14.5778 19.4639 14.7711L24.4454 19.2642L23.7931 19.9165L23.1152 19.2386C22.6357 18.7591 21.998 18.4951 21.32 18.4951C20.6419 18.4951 20.0042 18.7591 19.5247 19.2386L17.9321 20.8312C17.7389 21.0245 17.678 21.3136 17.777 21.5684C17.9604 22.0408 18.04 22.535 18.0264 23.0229L14.7062 19.3921ZM26.8395 26.5534L25.5491 27.8439C23.7744 27.3323 21.8433 27.8176 20.5213 29.1395H20.5212C19.1993 30.4615 18.7139 32.3923 19.2257 34.1674L11.0851 42.3078C10.2384 43.1545 9.11266 43.6209 7.91533 43.6209C6.71799 43.6209 5.59211 43.1545 4.74555 42.3078C2.99767 40.56 2.99767 37.716 4.74555 35.9682L12.8861 27.8277C14.6609 28.3395 16.5918 27.8538 17.9139 26.532C19.2357 25.21 19.7212 23.2791 19.2094 21.5042L20.4999 20.2138C20.9521 19.7615 21.688 19.7615 22.1401 20.2138L23.3056 21.3793L25.674 23.7477L26.8395 24.9132C27.2918 25.3655 27.2918 26.1013 26.8395 26.5534Z" fill="#437FC8"/>
<path d="M14.2669 30.4321C13.9975 30.1629 13.5611 30.1629 13.2917 30.4321L6.75984 36.964C6.49054 37.2334 6.49054 37.6698 6.75984 37.9392C6.89449 38.0738 7.07106 38.1411 7.24746 38.1411C7.42385 38.1411 7.60043 38.0738 7.73507 37.9392L14.2669 31.4074C14.5361 31.138 14.5361 30.7014 14.2669 30.4321Z" fill="#437FC8"/>
<path d="M16.6803 32.8455C16.411 32.5763 15.9745 32.5763 15.7051 32.8455L9.17323 39.3772C8.90394 39.6466 8.90394 40.0831 9.17323 40.3525C9.30788 40.487 9.48436 40.5543 9.66085 40.5543C9.83725 40.5543 10.0138 40.487 10.1485 40.3525L16.6803 33.8207C16.9496 33.5513 16.9496 33.1148 16.6803 32.8455Z" fill="#437FC8"/>
</g>
<defs>
<clipPath id="clip0_176_588">
<rect width="45" height="45" fill="white"/>
</clipPath>
</defs>
</svg>
